<svg xmlns="http://www.w3.org/2000/svg" viewBox="0 0 512 512" fill="#000000">
  <path d="M38.2 333.7l61.7-61.7c4.6-4.6 10.9-7.2 17.4-7.2h27.9l108.1-108.1c-6.2-4.1-10.4-11.2-10.4-19.2 0-12.7 10.3-23 23-23s23 10.3 23 23c0 8-4.2 15.1-10.4 19.2L385.6 265h27.9c6.5 0 12.8 2.6 17.4 7.2l61.7 61.7c4.6 4.6 7.2 10.9 7.2 17.4v27.9c0 6.5-2.6 12.8-7.2 17.4l-61.7 61.7c-4.6 4.6-10.9 7.2-17.4 7.2h-27.9L277.5 573.6c4.1 6.2 6.5 13.6 6.5 21.5 0 21.5-17.4 38.9-38.9 38.9s-38.9-17.4-38.9-38.9c0-7.9 2.4-15.3 6.5-21.5L105.6 465H77.7c-6.5 0-12.8-2.6-17.4-7.2L-1.4 396.1c-4.6-4.6-7.2-10.9-7.2-17.4v-27.9c0-6.5 2.6-12.8 7.2-17.4l39.6-39.5zM256 464c17.7 0 32-14.3 32-32s-14.3-32-32-32-32 14.3-32 32 14.3 32 32 32zM172.2 336l40-40h87.6l40 40H172.2zm87.6-80H172.2l-40-40h167.6l-40 40z"/>
</svg>